<?xml version="1.0" encoding="utf-8"?>
<!-- Generator: Adobe Illustrator 27.0.0, SVG Export Plug-In . SVG Version: 6.00 Build 0)  -->
<svg version="1.1" id="Calque_1" xmlns="http://www.w3.org/2000/svg" xmlns:xlink="http://www.w3.org/1999/xlink" x="0px" y="0px"
	 viewBox="0 0 156 48" style="enable-background:new 0 0 156 48;" xml:space="preserve">
<style type="text/css">
	.st0{fill:#FFFFFF;}
</style>
<g id="Page-1">
	<g>
		<path class="st0" d="M1.6,36.59L7.19,1.32h11.8c11.12,0,17.44,6.37,17.44,15.18c0,11.36-9.31,20.08-22.97,20.08L1.6,36.59
			L1.6,36.59z M14.97,8.87l-3.23,20.18h2.79c7.98,0,12.73-5.49,12.73-11.56c0-4.75-3.13-8.62-9.55-8.62
			C17.71,8.87,14.97,8.87,14.97,8.87z"/>
		<path class="st0" d="M64.63,22.53c0,8.33-6.95,14.74-15.48,14.74c-6.95,0-11.41-4.65-11.41-11.07c0-8.38,6.91-14.79,15.48-14.79
			C60.13,11.41,64.63,16.07,64.63,22.53z M56.36,23.41c0-2.89-1.81-4.75-4.26-4.75c-3.18,0-6.07,2.64-6.07,6.61
			c0,2.89,1.76,4.75,4.26,4.75C53.42,30.02,56.36,27.38,56.36,23.41z"/>
		<path class="st0" d="M71.59,12.1l0.29-1.91c0.93-5.83,5.14-9.55,12.24-9.55c1.62,0,2.94,0.2,3.38,0.29l-1.13,7.3
			c-0.44-0.15-1.27-0.34-2.5-0.34c-2.2,0-3.82,1.13-4.16,3.33l-0.15,0.88h5.34l-1.08,6.76h-4.95l-4.51,28.5h-8.72l4.51-28.5h-2.99
			l1.08-6.76H71.59z"/>
		<path class="st0" d="M89.65,12.1l0.29-1.91c0.93-5.83,5.14-9.55,12.24-9.55c1.62,0,2.94,0.2,3.38,0.29l-1.13,7.3
			c-0.44-0.15-1.27-0.34-2.5-0.34c-2.2,0-3.82,1.13-4.16,3.33l-0.15,0.88h5.34l-1.08,6.76h-4.95l-4.51,28.5H83.7l4.51-28.5h-2.99
			l1.08-6.76H89.65z"/>
		<path class="st0" d="M127.46,21.11c0,2.25-0.78,4.36-0.93,5h-14.94c-0.1,2.6,1.91,3.92,5.24,3.92c3.58,0,7.49-1.08,8.52-1.57
			l-1.13,7.3c-1.42,0.64-4.85,1.52-9.35,1.52c-7.84,0-12.24-4.6-12.24-11.02c0-8.38,6.91-14.84,14.89-14.84
			C124.33,11.41,127.46,15.87,127.46,21.11z M116.39,18.12c-2.3,0-3.82,1.76-4.21,3.97h7C119.58,19.89,118.74,18.12,116.39,18.12z"
			/>
		<path class="st0" d="M154.4,21.11c0,2.25-0.78,4.36-0.93,5h-14.94c-0.1,2.6,1.91,3.92,5.24,3.92c3.58,0,7.49-1.08,8.52-1.57
			l-1.13,7.3c-1.42,0.64-4.85,1.52-9.35,1.52c-7.84,0-12.24-4.6-12.24-11.02c0-8.38,6.91-14.84,14.89-14.84
			C151.26,11.41,154.4,15.87,154.4,21.11z M143.33,18.12c-2.3,0-3.82,1.76-4.21,3.97h7C146.51,19.89,145.68,18.12,143.33,18.12z"/>
	</g>
</g>
</svg>
