<?xml version="1.0" encoding="utf-8"?>
<!-- Generator: Adobe Illustrator 27.0.0, SVG Export Plug-In . SVG Version: 6.00 Build 0)  -->
<svg version="1.1" id="Calque_1" xmlns="http://www.w3.org/2000/svg" xmlns:xlink="http://www.w3.org/1999/xlink" x="0px" y="0px"
	 viewBox="0 0 156 48" style="enable-background:new 0 0 156 48;" xml:space="preserve">
<style type="text/css">
	.st0{fill:#B1C4B4;}
</style>
<g id="Page-1">
	<g>
		<path class="st0" d="M1.6,36.6L7.2,1.3H19c11.1,0,17.4,6.4,17.4,15.2c0,11.4-9.3,20.1-23,20.1H1.6L1.6,36.6z M15,8.9L11.7,29h2.8
			c8,0,12.7-5.5,12.7-11.6c0-4.8-3.1-8.6-9.5-8.6C17.7,8.9,15,8.9,15,8.9z"/>
		<path class="st0" d="M64.6,22.5c0,8.3-7,14.7-15.5,14.7c-7,0-11.4-4.7-11.4-11.1c0-8.4,6.9-14.8,15.5-14.8
			C60.1,11.4,64.6,16.1,64.6,22.5z M56.4,23.4c0-2.9-1.8-4.8-4.3-4.8c-3.2,0-6.1,2.6-6.1,6.6c0,2.9,1.8,4.8,4.3,4.8
			C53.4,30,56.4,27.4,56.4,23.4z"/>
		<path class="st0" d="M71.6,12.1l0.3-1.9c0.9-5.8,5.1-9.6,12.2-9.6c1.6,0,2.9,0.2,3.4,0.3l-1.1,7.3c-0.4-0.1-1.3-0.3-2.5-0.3
			c-2.2,0-3.8,1.1-4.2,3.3l-0.2,0.9h5.3l-1.1,6.8h-4.9l-4.5,28.5h-8.7l4.5-28.5h-3l1.1-6.8C68.2,12.1,71.6,12.1,71.6,12.1z"/>
		<path class="st0" d="M89.7,12.1l0.3-1.9c0.9-5.8,5.1-9.6,12.2-9.6c1.6,0,2.9,0.2,3.4,0.3l-1.1,7.3c-0.4-0.1-1.3-0.3-2.5-0.3
			c-2.2,0-3.8,1.1-4.2,3.3l-0.2,0.9h5.3l-1.1,6.8h-4.9l-4.5,28.5h-8.7l4.5-28.5h-3l1.1-6.8C86.3,12.1,89.7,12.1,89.7,12.1z"/>
		<path class="st0" d="M127.5,21.1c0,2.2-0.8,4.4-0.9,5h-14.9c-0.1,2.6,1.9,3.9,5.2,3.9c3.6,0,7.5-1.1,8.5-1.6l-1.1,7.3
			c-1.4,0.6-4.8,1.5-9.3,1.5c-7.8,0-12.2-4.6-12.2-11c0-8.4,6.9-14.8,14.9-14.8C124.3,11.4,127.5,15.9,127.5,21.1z M116.4,18.1
			c-2.3,0-3.8,1.8-4.2,4h7C119.6,19.9,118.7,18.1,116.4,18.1z"/>
		<path class="st0" d="M154.4,21.1c0,2.2-0.8,4.4-0.9,5h-14.9c-0.1,2.6,1.9,3.9,5.2,3.9c3.6,0,7.5-1.1,8.5-1.6l-1.1,7.3
			c-1.4,0.6-4.9,1.5-9.4,1.5c-7.8,0-12.2-4.6-12.2-11c0-8.4,6.9-14.8,14.9-14.8C151.3,11.4,154.4,15.9,154.4,21.1z M143.3,18.1
			c-2.3,0-3.8,1.8-4.2,4h7C146.5,19.9,145.7,18.1,143.3,18.1z"/>
	</g>
</g>
</svg>
